<svg width="265" height="34" viewBox="0 0 265 34" fill="none" xmlns="http://www.w3.org/2000/svg">
<path d="M0.704 34V0.399998H31.76V34H24.272V6.688H8.144V34H0.704ZM37.5984 34L51.3744 0.399998H60.9744L74.7504 34H67.1664L64.7664 27.856H47.5824L45.1824 34H37.5984ZM49.5504 22.672H62.7984L56.1744 5.872L49.5504 22.672ZM80.204 34V0.399998H94.076C103.772 0.399998 108.812 4.624 108.812 12.592C108.812 20.56 103.772 24.832 94.076 24.832H87.452V34H80.204ZM87.452 19.504H93.836C99.26 19.504 101.9 17.152 101.9 12.64C101.9 8.128 99.308 5.824 93.836 5.824H87.452V19.504ZM122 34H114.704V0.399998H122V18.016L137.744 0.399998H146.384L132.176 16.144L147.728 34H138.56L127.376 21.184L122 27.04V34ZM168.517 0.399998H178.981L188.437 29.056L197.893 0.399998H208.309V34H201.397V7.072L192.565 34H184.261L175.429 7.072V34H168.517V0.399998ZM215.217 24.16V19.456H231.681V24.16H215.217ZM252.73 28.048H235.978V21.808L251.962 0.399998H259.594V22.72H264.778V28.048H259.594V34H252.73V28.048ZM241.738 22.72H252.778V7.84L241.738 22.72Z" fill="#364A46"/>
</svg>
