<svg width="397" height="51" viewBox="0 0 397 51" fill="none" xmlns="http://www.w3.org/2000/svg">
<path d="M0 51V0H46.6886V51H35.4314V9.54429H11.1851V51H0Z" fill="#364A46"/>
<path d="M55.4658 51L76.1762 0H90.6085L111.319 51H99.9174L96.3093 41.6743H70.4754L66.8673 51H55.4658ZM73.434 33.8057H93.3507L83.3923 8.30572L73.434 33.8057Z" fill="#364A46"/>
<path d="M119.518 51V0H140.372C154.949 0 162.526 6.41143 162.526 18.5057C162.526 30.6 154.949 37.0843 140.372 37.0843H130.414V51H119.518ZM130.414 28.9971H140.012C148.166 28.9971 152.135 25.4271 152.135 18.5786C152.135 11.73 148.238 8.23286 140.012 8.23286H130.414V28.9971Z" fill="#364A46"/>
<path d="M182.352 51H171.384V0H182.352V26.7386L206.021 0H219.011L197.651 23.8971L221.031 51H207.248L190.435 31.5471L182.352 40.4357V51Z" fill="#364A46"/>
<path d="M252.284 0H268.015L282.231 43.4957L296.447 0H312.106V51H301.715V10.1271L288.437 51H275.953L262.675 10.1271V51H252.284V0Z" fill="#364A46"/>
<path d="M322.492 36.0643V28.9243H347.243V36.0643H322.492Z" fill="#364A46"/>
<path d="M378.887 41.9657H353.703V32.4943L377.733 0H389.207V33.8786H397V41.9657H389.207V51H378.887V41.9657ZM362.362 33.8786H378.96V11.2929L362.362 33.8786Z" fill="#364A46"/>
</svg>
