<svg width="87" height="18" viewBox="0 0 87 18" fill="none" xmlns="http://www.w3.org/2000/svg">
<path d="M0 17.4502V0H8.63361C14.0794 0 17.0016 2.0745 17.0016 5.97944C17.0016 8.54209 15.8061 10.2505 13.4153 11.2267L17.7985 17.4502H13.0168L9.29775 11.9589C8.89926 11.9589 8.50078 11.9589 8.10229 11.9589H4.11757V17.4502H0ZM4.25039 9.27424H8.50078C11.5557 9.27424 13.1496 8.17599 13.1496 5.97944C13.1496 3.78292 11.6886 2.68465 8.50078 2.68465H4.25039V9.27424Z" fill="black"/>
<path d="M31.3467 0C35.9955 0 38.3864 1.58638 38.3864 4.39306C38.3864 6.22351 37.4566 7.56583 35.4642 8.29802C37.9879 8.90814 39.3162 10.3725 39.3162 12.569C39.3162 15.6198 36.7925 17.4502 32.4093 17.4502H21.9161V0H31.3467ZM25.9009 2.68465V7.32176H31.081C33.3391 7.32176 34.4016 6.5896 34.4016 5.00322C34.4016 3.41683 33.3391 2.68465 31.081 2.68465H25.9009ZM31.878 14.6436C34.0032 14.6436 35.1986 13.7893 35.1986 12.0809C35.1986 10.3725 34.0032 9.51831 31.878 9.51831H25.9009V14.6436H31.878Z" fill="black"/>
<path d="M42.7695 17.4502V0H47.9498L58.1771 13.3012V0H62.2949V17.4502H57.2473L47.0199 4.02696V17.4502H42.7695Z" fill="black"/>
<path d="M73.5848 0H79.0304L86.9997 17.4502H82.6168L81.2885 14.2775H71.4592L70.1313 17.4502H65.748L73.5848 0ZM80.0928 11.5928L76.2409 2.92871L72.522 11.5928H80.0928Z" fill="black"/>
</svg>
