<svg width="20" height="18" viewBox="0 0 20 18" fill="none" xmlns="http://www.w3.org/2000/svg">
<g clip-path="url(#clip0_2370_2214)">
<path d="M20 12.2314C19.6961 11.9167 19.4079 11.6182 19.1241 11.3174C19.0995 11.2896 19.0973 11.2318 19.0973 11.1878C19.0973 9.42229 19.0973 7.65677 19.0973 5.89124C19.0973 5.06286 19.0973 4.23679 19.0973 3.40841V3.28346C18.8761 3.48245 18.6728 3.66525 18.4694 3.85037C16.921 5.24797 15.3726 6.64558 13.8242 8.04088C13.1784 8.62399 12.5394 9.21404 11.8847 9.78326C11.3261 10.2669 10.6759 10.5237 9.93855 10.4821C9.26153 10.4427 8.67836 10.1512 8.16892 9.69533C7.72204 9.29271 7.27516 8.89009 6.82829 8.48515C6.79701 8.45738 6.76572 8.43193 6.72551 8.39954C6.49313 8.58696 6.26299 8.77208 6.03508 8.95951C5.05642 9.76012 4.07999 10.5631 3.10133 11.3637C2.39079 11.9445 1.68026 12.5276 0.971958 13.1107C0.940677 13.1361 0.907161 13.1824 0.907161 13.2194C0.902692 13.5133 0.904927 13.8072 0.904927 14.1149H10.4435V15.0521H0V0H20V12.2314ZM19.0951 0.941766H0.904927C0.904927 1.22406 0.909396 1.49711 0.904927 1.77015C0.904927 1.85577 0.931739 1.9113 0.992068 1.96452C1.82773 2.71654 2.66115 3.47088 3.49682 4.22291C4.91118 5.50019 6.32555 6.77748 7.74215 8.05245C8.17115 8.43887 8.58675 8.84381 9.0448 9.18627C9.56541 9.57501 10.1508 9.656 10.7653 9.39452C11.1407 9.23486 11.4289 8.95719 11.7261 8.68878C13.3371 7.23563 14.9458 5.78249 16.5546 4.32935C17.3768 3.58658 18.1991 2.84612 19.0213 2.10335C19.0549 2.07327 19.0973 2.02468 19.0973 1.98303C19.104 1.63826 19.1018 1.29348 19.1018 0.941766H19.0951ZM6.03061 7.76552C4.3213 6.22214 2.62317 4.68801 0.91163 3.14462V11.956C2.6254 10.5515 4.32354 9.16082 6.03061 7.76552Z" fill="white"/>
<path d="M15.907 9.80199V16.1838C15.9383 16.1537 15.9539 16.1375 15.9718 16.1213C16.7382 15.3276 17.5046 14.5363 18.2687 13.7403C18.4028 13.6015 18.5503 13.5158 18.7424 13.5667C19.0954 13.6593 19.2139 14.0897 18.9547 14.3627C18.4631 14.8787 17.9671 15.3901 17.471 15.9015C16.8387 16.5563 16.2064 17.2112 15.5763 17.866C15.5383 17.9053 15.5093 17.9516 15.4713 18.0002C15.4311 17.9655 15.4087 17.9516 15.3908 17.9308C14.2491 16.7484 13.1073 15.5683 11.9655 14.3836C11.6974 14.1059 11.7577 13.731 12.0973 13.5806C12.285 13.4973 12.4504 13.5505 12.5934 13.6963C13.038 14.1568 13.4849 14.6196 13.9295 15.08C14.2759 15.4387 14.6222 15.7974 14.9864 16.1745V9.79736H15.9092L15.907 9.80199Z" fill="white"/>
</g>
<defs>
<clipPath id="clip0_2370_2214">
<rect width="20" height="18" fill="white"/>
</clipPath>
</defs>
</svg>
