<svg width="22" height="22" viewBox="0 0 22 22" fill="none" xmlns="http://www.w3.org/2000/svg">
<path fill-rule="evenodd" clip-rule="evenodd" d="M10.9968 0C4.9327 0 0 4.93408 0 10.9999C0 13.4055 0.775794 15.6365 2.09459 17.4474L0.723979 21.5342L4.95204 20.183C6.69102 21.334 8.76628 22 11.0032 22C17.0673 22 22 17.0657 22 11.0001C22 4.93428 17.0673 0.000181834 11.0032 0.000181834L10.9968 0ZM7.92589 5.58746C7.7126 5.07662 7.55094 5.05728 7.22781 5.04414C7.11779 5.03775 6.99518 5.03137 6.85925 5.03137C6.43887 5.03137 5.99934 5.1542 5.73423 5.42577C5.4111 5.75556 4.60938 6.52501 4.60938 8.10297C4.60938 9.68093 5.76014 11.207 5.91523 11.4206C6.07688 11.6338 8.15869 14.9189 11.3911 16.2578C13.9188 17.3054 14.6689 17.2083 15.2442 17.0854C16.0846 16.9044 17.1385 16.2833 17.4036 15.5334C17.6687 14.7831 17.6687 14.1429 17.5909 14.0071C17.5134 13.8713 17.2999 13.7939 16.9768 13.632C16.6537 13.4703 15.0825 12.6943 14.7851 12.5908C14.4941 12.481 14.2162 12.5198 13.9966 12.8303C13.6862 13.2635 13.3824 13.7034 13.1367 13.9684C12.9427 14.1754 12.6258 14.2013 12.3608 14.0912C12.0052 13.9427 11.0098 13.5932 9.78129 12.5003C8.83088 11.6533 8.18444 10.5993 7.99706 10.2825C7.80949 9.95925 7.97769 9.77145 8.12621 9.59697C8.28787 9.39639 8.44298 9.25422 8.60463 9.0666C8.76629 8.87917 8.85679 8.78207 8.96024 8.56215C9.07026 8.3488 8.99252 8.12888 8.91498 7.96718C8.83744 7.80548 8.191 6.22752 7.92589 5.58746Z" fill="white"/>
</svg>
