<svg width="40" height="40" viewBox="0 0 40 40" fill="none" xmlns="http://www.w3.org/2000/svg">
<path d="M13 18H9.5L3.48291 38H36.517L30 18H27" stroke="black" stroke-width="0.977493" stroke-miterlimit="10" stroke-linejoin="round"/>
<path d="M19.9995 3C15.3413 3 11.562 6.83688 11.562 11.5625C11.562 17 17.187 25.6169 19.2524 28.5931C19.3382 28.7188 19.4505 28.821 19.5804 28.8915C19.7102 28.962 19.8538 28.9987 19.9995 28.9987C20.1452 28.9987 20.2888 28.962 20.4186 28.8915C20.5485 28.821 20.6608 28.7188 20.7466 28.5931C22.812 25.6181 28.437 17.0044 28.437 11.5625C28.437 6.83688 24.6577 3 19.9995 3Z" stroke="black" stroke-width="0.98" stroke-linecap="round" stroke-linejoin="round"/>
<path d="M20.0021 15.0047C21.5565 15.0047 22.8166 13.6605 22.8166 12.0025C22.8166 10.3444 21.5565 9.00024 20.0021 9.00024C18.4476 9.00024 17.1875 10.3444 17.1875 12.0025C17.1875 13.6605 18.4476 15.0047 20.0021 15.0047Z" stroke="black" stroke-width="0.98" stroke-linecap="round" stroke-linejoin="round"/>
</svg>
