<svg width="24" height="24" viewBox="0 0 24 24" fill="none" xmlns="http://www.w3.org/2000/svg">
<mask id="mask0_2302_137" style="mask-type: alpha" maskUnits="userSpaceOnUse" x="0" y="0" width="24" height="25">
<rect y="0.00195312" width="24" height="24" fill="#D9D9D9"></rect>
</mask>
<g mask="url('#mask0_2302_137')">
<path d="M8.4 16.3097L12 12.7097L15.6 16.3097L16.3077 15.602L12.7078 12.002L16.3077 8.40195L15.6 7.6942L12 11.2942L8.4 7.6942L7.69225 8.40195L11.2923 12.002L7.69225 15.602L8.4 16.3097ZM12.0033 21.002C10.7587 21.002 9.58867 20.7658 8.493 20.2935C7.3975 19.8211 6.4445 19.1801 5.634 18.3705C4.8235 17.5608 4.18192 16.6086 3.70925 15.514C3.23642 14.4195 3 13.2499 3 12.0052C3 10.7607 3.23617 9.59062 3.7085 8.49495C4.18083 7.39945 4.82183 6.44645 5.6315 5.63595C6.44117 4.82545 7.39333 4.18387 8.488 3.7112C9.5825 3.23837 10.7521 3.00195 11.9967 3.00195C13.2413 3.00195 14.4113 3.23812 15.507 3.71045C16.6025 4.18279 17.5555 4.82379 18.366 5.63345C19.1765 6.44312 19.8181 7.39529 20.2908 8.48995C20.7636 9.58445 21 10.754 21 11.9987C21 13.2432 20.7638 14.4133 20.2915 15.509C19.8192 16.6045 19.1782 17.5575 18.3685 18.368C17.5588 19.1785 16.6067 19.82 15.512 20.2927C14.4175 20.7655 13.2479 21.002 12.0033 21.002ZM12 20.002C14.2333 20.002 16.125 19.227 17.675 17.677C19.225 16.127 20 14.2353 20 12.002C20 9.76862 19.225 7.87695 17.675 6.32695C16.125 4.77695 14.2333 4.00195 12 4.00195C9.76667 4.00195 7.875 4.77695 6.325 6.32695C4.775 7.87695 4 9.76862 4 12.002C4 14.2353 4.775 16.127 6.325 17.677C7.875 19.227 9.76667 20.002 12 20.002Z" fill="white" fill-opacity="0.5"></path>
</g>
</svg>
