<svg width="145" height="32" viewBox="0 0 145 32" fill="none" xmlns="http://www.w3.org/2000/svg">
<path d="M0.804688 31.2889V0H15.0342C24.0097 0 28.8258 3.71966 28.8258 10.7214C28.8258 15.3163 26.8556 18.3795 22.9151 20.1299L30.1394 31.2889H22.2584L16.1288 21.4427C15.472 21.4427 14.8153 21.4427 14.1585 21.4427H7.59106V31.2889H0.804688ZM7.80998 16.629H14.8153C19.8503 16.629 22.4773 14.6598 22.4773 10.7214C22.4773 6.7829 20.0692 4.81367 14.8153 4.81367H7.80998V16.629Z" fill="black"></path>
<path d="M52.4688 0C60.1308 0 64.0713 2.84444 64.0713 7.87691C64.0713 11.159 62.5389 13.5658 59.2551 14.8786C63.4146 15.9726 65.6037 18.5983 65.6037 22.5367C65.6037 28.0068 61.4443 31.2889 54.2201 31.2889H36.9258V0H52.4688ZM43.4933 4.81367V13.1282H52.031C55.7525 13.1282 57.5038 11.8154 57.5038 8.97095C57.5038 6.1265 55.7525 4.81367 52.031 4.81367H43.4933ZM53.3445 26.2564C56.8471 26.2564 58.8174 24.7248 58.8174 21.6615C58.8174 18.5983 56.8471 17.0667 53.3445 17.0667H43.4933V26.2564H53.3445Z" fill="black"></path>
<path d="M71.2954 31.2889V0H79.8332L96.6894 23.8496V0H103.476V31.2889H95.1569L78.3007 7.22048V31.2889H71.2954Z" fill="black"></path>
<path d="M122.084 0H131.059L144.194 31.2889H136.97L134.781 25.6H118.581L116.392 31.2889H109.168L122.084 0ZM132.81 20.7863L126.462 5.25129L120.332 20.7863H132.81Z" fill="black"></path>
</svg>
