<svg width="27" height="28" viewBox="0 0 27 28" fill="none" xmlns="http://www.w3.org/2000/svg">
<mask id="mask0_2215_64" style="mask-type: alpha" maskUnits="userSpaceOnUse" x="0" y="0" width="27" height="28">
<rect y="0.666626" width="26.6667" height="26.6667" fill="#D9D9D9"></rect>
</mask>
<g mask="url('#mask0_2215_64')">
<path d="M7.77783 22.889V5.11121H14.4445C15.9688 5.11121 17.2757 5.65611 18.3653 6.74593C19.4551 7.83556 20.0001 9.1425 20.0001 10.6668C20.0001 12.191 19.4551 13.498 18.3653 14.5876C17.2757 15.6774 15.9688 16.2223 14.4445 16.2223H10.0001V22.889H7.77783ZM10.0001 14.0001H14.4959C15.4126 14.0001 16.1973 13.6737 16.8501 13.0209C17.5028 12.3682 17.8292 11.5834 17.8292 10.6668C17.8292 9.75009 17.5028 8.96537 16.8501 8.31259C16.1973 7.65982 15.4126 7.33343 14.4959 7.33343H10.0001V14.0001Z" fill="white"></path>
</g>
</svg>
