<svg width="28" height="28" viewBox="0 0 28 28" fill="none" xmlns="http://www.w3.org/2000/svg">
<mask id="mask0_2206_533" style="mask-type: alpha" maskUnits="userSpaceOnUse" x="0" y="0" width="28" height="28">
<rect x="0.666504" y="0.664062" width="26.6667" height="26.6667" fill="#D9D9D9"></rect>
</mask>
<g mask="url('#mask0_2206_533')">
<path d="M2.3335 21.2196V5.66406H4.00016V16.2196H13.1668V7.88628H21.7779C22.8474 7.88628 23.7628 8.26712 24.5243 9.02878C25.286 9.79027 25.6668 10.7057 25.6668 11.7752V21.2196H24.0002V17.8863H4.00016V21.2196H2.3335ZM8.44322 14.6171C7.65359 14.6171 6.98276 14.3406 6.43072 13.7877C5.87868 13.2349 5.60266 12.5636 5.60266 11.7738C5.60266 10.9842 5.87914 10.3133 6.43211 9.76128C6.98489 9.20925 7.65618 8.93323 8.446 8.93323C9.23563 8.93323 9.90646 9.20971 10.4585 9.76267C11.0105 10.3155 11.2866 10.9867 11.2866 11.7766C11.2866 12.5662 11.0101 13.237 10.4571 13.7891C9.90433 14.3411 9.23303 14.6171 8.44322 14.6171ZM14.8335 16.2196H24.0002V11.7752C24.0002 11.1641 23.7826 10.6409 23.3474 10.2057C22.9122 9.77054 22.3891 9.55295 21.7779 9.55295H14.8335V16.2196ZM8.44461 12.9505C8.77368 12.9505 9.05183 12.8368 9.27905 12.6096C9.50627 12.3824 9.61989 12.1042 9.61989 11.7752C9.61989 11.4461 9.50627 11.168 9.27905 10.9407C9.05183 10.7135 8.77368 10.5999 8.44461 10.5999C8.11553 10.5999 7.83739 10.7135 7.61016 10.9407C7.38294 11.168 7.26933 11.4461 7.26933 11.7752C7.26933 12.1042 7.38294 12.3824 7.61016 12.6096C7.83739 12.8368 8.11553 12.9505 8.44461 12.9505Z" fill="white"></path>
</g>
</svg>
