<svg width="149" height="32" viewBox="0 0 149 32" fill="none" xmlns="http://www.w3.org/2000/svg">
<g clip-path="url('#clip0_2344_398')">
<path d="M2.80469 31.2869V-0.00195312H17.0342C26.0097 -0.00195312 30.8258 3.71771 30.8258 10.7194C30.8258 15.3143 28.8556 18.3776 24.9151 20.128L32.1394 31.2869H24.2584L18.1288 21.4407C17.472 21.4407 16.8153 21.4407 16.1585 21.4407H9.59106V31.2869H2.80469ZM9.80998 16.6271H16.8153C21.8503 16.6271 24.4773 14.6579 24.4773 10.7194C24.4773 6.78095 22.0692 4.81172 16.8153 4.81172H9.80998V16.6271Z" fill="white"></path>
<path d="M54.4688 -0.00195312C62.1308 -0.00195312 66.0713 2.84249 66.0713 7.87495C66.0713 11.157 64.5389 13.5638 61.2551 14.8767C65.4146 15.9707 67.6037 18.5963 67.6037 22.5348C67.6037 28.0049 63.4443 31.2869 56.2201 31.2869H38.9258V-0.00195312H54.4688ZM45.4933 4.81172V13.1262H54.031C57.7525 13.1262 59.5038 11.8134 59.5038 8.969C59.5038 6.12455 57.7525 4.81172 54.031 4.81172H45.4933ZM55.3445 26.2545C58.8471 26.2545 60.8174 24.7228 60.8174 21.6596C60.8174 18.5963 58.8471 17.0647 55.3445 17.0647H45.4933V26.2545H55.3445Z" fill="white"></path>
<path d="M73.2959 31.2869V-0.00195312H81.8337L98.6899 23.8476V-0.00195312H105.477V31.2869H97.1574L80.3012 7.21853V31.2869H73.2959Z" fill="white"></path>
<path d="M124.084 -0.00195312H133.059L146.194 31.2869H138.97L136.781 25.598H120.581L118.392 31.2869H111.168L124.084 -0.00195312ZM134.81 20.7844L128.462 5.24933L122.332 20.7844H134.81Z" fill="white"></path>
</g>
<defs>
<clipPath id="clip0_2344_398">
<rect width="149" height="32" fill="white" transform="translate(0 -0.00195312)"></rect>
</clipPath>
</defs>
</svg>
