<svg xmlns="http://www.w3.org/2000/svg" viewBox="0 0 1632.48 771.19"><defs><style>.cls-1,.cls-2{fill:none;stroke:#000;stroke-miterlimit:10;}.cls-1{stroke-width:2px;}</style></defs><g id="Layer_2" data-name="Layer 2"><g id="Layer_1-2" data-name="Layer 1"><polyline class="cls-1" points="921.42 718.21 468.18 718.21 468.18 385.42 135.1 385.42 135.1 261.93 11.61 261.93 11.61 53.17 921.42 53.17"/><rect class="cls-1" x="921.42" y="32.6" width="89.24" height="84.95"/><rect class="cls-1" x="921.42" y="653.87" width="89.24" height="84.95"/><polyline class="cls-1" points="1010.66 718.21 1462.47 718.21 1462.47 471.13 1631.48 471.13 1631.48 52.98 1010.66 52.98"/><rect class="cls-1" x="444.44" y="53.17" width="46.73" height="44"/><rect class="cls-1" x="11.61" y="176.91" width="44" height="85.02"/><rect class="cls-1" x="468.18" y="654.12" width="22.86" height="33.14"/><rect class="cls-1" x="1419.55" y="695.83" width="42.92" height="22.38"/><rect class="cls-1" x="1608.09" y="52.98" width="23.4" height="43.52"/><rect class="cls-2" x="40.58" y="53.17" width="6.54" height="9.11"/><polyline class="cls-2" points="38.11 52.26 38.11 51 39.66 51"/><polyline class="cls-2" points="49.59 52.26 49.59 51 48.05 51"/><rect class="cls-2" x="61.31" y="53.17" width="6.54" height="9.11"/><polyline class="cls-2" points="58.84 52.26 58.84 51 60.38 51"/><polyline class="cls-2" points="70.32 52.26 70.32 51 68.77 51"/><rect class="cls-2" x="81.93" y="53.17" width="6.54" height="9.11"/><polyline class="cls-2" points="79.46 52.26 79.46 51 81 51"/><polyline class="cls-2" points="90.94 52.26 90.94 51 89.39 51"/><rect class="cls-2" x="102.5" y="53.17" width="6.54" height="9.11"/><polyline class="cls-2" points="100.03 52.26 100.03 51 101.58 51"/><polyline class="cls-2" points="111.51 52.26 111.51 51 109.96 51"/><rect class="cls-2" x="122.98" y="53.17" width="6.54" height="9.11"/><polyline class="cls-2" points="120.5 52.26 120.5 51 122.05 51"/><polyline class="cls-2" points="131.99 52.26 131.99 51 130.44 51"/><rect class="cls-2" x="143.55" y="53.17" width="6.54" height="9.11"/><polyline class="cls-2" points="141.07 52.26 141.07 51 142.62 51"/><polyline class="cls-2" points="152.56 52.26 152.56 51 151.01 51"/><rect class="cls-2" x="164.27" y="53.17" width="6.54" height="9.11"/><polyline class="cls-2" points="161.8 52.26 161.8 51 163.35 51"/><polyline class="cls-2" points="173.29 52.26 173.29 51 171.74 51"/><rect class="cls-2" x="184.89" y="53.17" width="6.54" height="9.11"/><polyline class="cls-2" points="182.42 52.26 182.42 51 183.97 51"/><polyline class="cls-2" points="193.91 52.26 193.91 51 192.36 51"/><rect class="cls-2" x="205.46" y="53.17" width="6.54" height="9.11"/><polyline class="cls-2" points="202.99 52.26 202.99 51 204.54 51"/><polyline class="cls-2" points="214.48 52.26 214.48 51 212.93 51"/><rect class="cls-2" x="225.94" y="53.17" width="6.54" height="9.11"/><polyline class="cls-2" points="223.47 52.26 223.47 51 225.02 51"/><polyline class="cls-2" points="234.95 52.26 234.95 51 233.41 51"/><rect class="cls-2" x="246.79" y="53.17" width="6.54" height="9.11"/><polyline class="cls-2" points="244.31 52.26 244.31 51 245.86 51"/><polyline class="cls-2" points="255.8 52.26 255.8 51 254.25 51"/><rect class="cls-2" x="267.26" y="53.17" width="6.54" height="9.11"/><polyline class="cls-2" points="264.79 52.26 264.79 51 266.34 51"/><polyline class="cls-2" points="276.27 52.26 276.27 51 274.73 51"/><rect class="cls-2" x="287.83" y="53.17" width="6.54" height="9.11"/><polyline class="cls-2" points="285.36 52.26 285.36 51 286.91 51"/><polyline class="cls-2" points="296.85 52.26 296.85 51 295.3 51"/><rect class="cls-2" x="308.56" y="53.17" width="6.54" height="9.11"/><polyline class="cls-2" points="306.09 52.26 306.09 51 307.63 51"/><polyline class="cls-2" points="317.57 52.26 317.57 51 316.02 51"/><rect class="cls-2" x="329.18" y="53.17" width="6.54" height="9.11"/><polyline class="cls-2" points="326.71 52.26 326.71 51 328.25 51"/><polyline class="cls-2" points="338.19 52.26 338.19 51 336.64 51"/><rect class="cls-2" x="349.75" y="53.17" width="6.54" height="9.11"/><polyline class="cls-2" points="347.28 52.26 347.28 51 348.82 51"/><polyline class="cls-2" points="358.76 52.26 358.76 51 357.21 51"/><rect class="cls-2" x="370.23" y="53.17" width="6.54" height="9.11"/><polyline class="cls-2" points="367.75 52.26 367.75 51 369.3 51"/><polyline class="cls-2" points="379.24 52.26 379.24 51 377.69 51"/><rect class="cls-2" x="391.17" y="53.17" width="6.54" height="9.11"/><polyline class="cls-2" points="388.69 52.26 388.69 51 390.24 51"/><polyline class="cls-2" points="400.18 52.26 400.18 51 398.63 51"/><rect class="cls-2" x="411.64" y="53.17" width="6.54" height="9.11"/><polyline class="cls-2" points="409.17 52.26 409.17 51 410.72 51"/><polyline class="cls-2" points="420.65 52.26 420.65 51 419.11 51"/><rect class="cls-2" x="517.87" y="53.17" width="6.54" height="9.11"/><polyline class="cls-2" points="515.39 52.26 515.39 51 516.94 51"/><polyline class="cls-2" points="526.88 52.26 526.88 51 525.33 51"/><rect class="cls-2" x="538.59" y="53.17" width="6.54" height="9.11"/><polyline class="cls-2" points="536.12 52.26 536.12 51 537.67 51"/><polyline class="cls-2" points="547.6 52.26 547.6 51 546.06 51"/><rect class="cls-2" x="559.21" y="53.17" width="6.54" height="9.11"/><polyline class="cls-2" points="556.74 52.26 556.74 51 558.29 51"/><polyline class="cls-2" points="568.22 52.26 568.22 51 566.67 51"/><rect class="cls-2" x="579.78" y="53.17" width="6.54" height="9.11"/><polyline class="cls-2" points="577.31 52.26 577.31 51 578.86 51"/><polyline class="cls-2" points="588.79 52.26 588.79 51 587.25 51"/><rect class="cls-2" x="600.26" y="53.17" width="6.54" height="9.11"/><polyline class="cls-2" points="597.79 52.26 597.79 51 599.33 51"/><polyline class="cls-2" points="609.27 52.26 609.27 51 607.72 51"/><rect class="cls-2" x="620.83" y="53.17" width="6.54" height="9.11"/><polyline class="cls-2" points="618.36 52.26 618.36 51 619.9 51"/><polyline class="cls-2" points="629.84 52.26 629.84 51 628.29 51"/><rect class="cls-2" x="641.56" y="53.17" width="6.54" height="9.11"/><polyline class="cls-2" points="639.08 52.26 639.08 51 640.63 51"/><polyline class="cls-2" points="650.57 52.26 650.57 51 649.02 51"/><rect class="cls-2" x="662.17" y="53.17" width="6.54" height="9.11"/><polyline class="cls-2" points="659.7 52.26 659.7 51 661.25 51"/><polyline class="cls-2" points="671.19 52.26 671.19 51 669.64 51"/><rect class="cls-2" x="682.75" y="53.17" width="6.54" height="9.11"/><polyline class="cls-2" points="680.27 52.26 680.27 51 681.82 51"/><polyline class="cls-2" points="691.76 52.26 691.76 51 690.21 51"/><rect class="cls-2" x="703.22" y="53.17" width="6.54" height="9.11"/><polyline class="cls-2" points="700.75 52.26 700.75 51 702.3 51"/><polyline class="cls-2" points="712.23 52.26 712.23 51 710.69 51"/><rect class="cls-2" x="724.07" y="53.17" width="6.54" height="9.11"/><polyline class="cls-2" points="721.6 52.26 721.6 51 723.14 51"/><polyline class="cls-2" points="733.08 52.26 733.08 51 731.53 51"/><rect class="cls-2" x="744.54" y="53.17" width="6.54" height="9.11"/><polyline class="cls-2" points="742.07 52.26 742.07 51 743.62 51"/><polyline class="cls-2" points="753.56 52.26 753.56 51 752.01 51"/><rect class="cls-2" x="765.12" y="53.17" width="6.54" height="9.11"/><polyline class="cls-2" points="762.64 52.26 762.64 51 764.19 51"/><polyline class="cls-2" points="774.13 52.26 774.13 51 772.58 51"/><rect class="cls-2" x="785.84" y="53.17" width="6.54" height="9.11"/><polyline class="cls-2" points="783.37 52.26 783.37 51 784.92 51"/><polyline class="cls-2" points="794.85 52.26 794.85 51 793.31 51"/><rect class="cls-2" x="806.46" y="53.17" width="6.54" height="9.11"/><polyline class="cls-2" points="803.99 52.26 803.99 51 805.54 51"/><polyline class="cls-2" points="815.47 52.26 815.47 51 813.92 51"/><rect class="cls-2" x="827.03" y="53.17" width="6.54" height="9.11"/><polyline class="cls-2" points="824.56 52.26 824.56 51 826.11 51"/><polyline class="cls-2" points="836.04 52.26 836.04 51 834.5 51"/><rect class="cls-2" x="847.51" y="53.17" width="6.54" height="9.11"/><polyline class="cls-2" points="845.04 52.26 845.04 51 846.58 51"/><polyline class="cls-2" points="856.52 52.26 856.52 51 854.97 51"/><rect class="cls-2" x="868.45" y="53.17" width="6.54" height="9.11"/><polyline class="cls-2" points="865.98 52.26 865.98 51 867.52 51"/><polyline class="cls-2" points="877.46 52.26 877.46 51 875.91 51"/><rect class="cls-2" x="888.92" y="53.17" width="6.54" height="9.11"/><polyline class="cls-2" points="886.45 52.26 886.45 51 888 51"/><polyline class="cls-2" points="897.94 52.26 897.94 51 896.39 51"/><rect class="cls-2" x="1036.31" y="53.17" width="6.54" height="9.11"/><polyline class="cls-2" points="1033.84 52.26 1033.84 51 1035.38 51"/><polyline class="cls-2" points="1045.32 52.26 1045.32 51 1043.77 51"/><rect class="cls-2" x="1057.04" y="53.17" width="6.54" height="9.11"/><polyline class="cls-2" points="1054.56 52.26 1054.56 51 1056.11 51"/><polyline class="cls-2" points="1066.05 52.26 1066.05 51 1064.5 51"/><rect class="cls-2" x="1077.65" y="53.17" width="6.54" height="9.11"/><polyline class="cls-2" points="1075.18 52.26 1075.18 51 1076.73 51"/><polyline class="cls-2" points="1086.67 52.26 1086.67 51 1085.12 51"/><rect class="cls-2" x="1098.23" y="53.17" width="6.54" height="9.11"/><polyline class="cls-2" points="1095.75 52.26 1095.75 51 1097.3 51"/><polyline class="cls-2" points="1107.24 52.26 1107.24 51 1105.69 51"/><rect class="cls-2" x="1118.7" y="53.17" width="6.54" height="9.11"/><polyline class="cls-2" points="1116.23 52.26 1116.23 51 1117.78 51"/><polyline class="cls-2" points="1127.71 52.26 1127.71 51 1126.17 51"/><rect class="cls-2" x="1139.27" y="53.17" width="6.54" height="9.11"/><polyline class="cls-2" points="1136.8 52.26 1136.8 51 1138.35 51"/><polyline class="cls-2" points="1148.29 52.26 1148.29 51 1146.74 51"/><rect class="cls-2" x="1160" y="53.17" width="6.54" height="9.11"/><polyline class="cls-2" points="1157.53 52.26 1157.53 51 1159.08 51"/><polyline class="cls-2" points="1169.01 52.26 1169.01 51 1167.46 51"/><rect class="cls-2" x="1180.62" y="53.17" width="6.54" height="9.11"/><polyline class="cls-2" points="1178.15 52.26 1178.15 51 1179.69 51"/><polyline class="cls-2" points="1189.63 52.26 1189.63 51 1188.08 51"/><rect class="cls-2" x="1201.19" y="53.17" width="6.54" height="9.11"/><polyline class="cls-2" points="1198.72 52.26 1198.72 51 1200.27 51"/><polyline class="cls-2" points="1210.2 52.26 1210.2 51 1208.65 51"/><rect class="cls-2" x="1221.67" y="53.17" width="6.54" height="9.11"/><polyline class="cls-2" points="1219.19 52.26 1219.19 51 1220.74 51"/><polyline class="cls-2" points="1230.68 52.26 1230.68 51 1229.13 51"/><rect class="cls-2" x="1262.99" y="53.17" width="6.54" height="9.11"/><polyline class="cls-2" points="1260.52 52.26 1260.52 51 1262.06 51"/><polyline class="cls-2" points="1272 52.26 1272 51 1270.45 51"/><rect class="cls-2" x="1283.56" y="53.17" width="6.54" height="9.11"/><polyline class="cls-2" points="1281.09 52.26 1281.09 51 1282.63 51"/><polyline class="cls-2" points="1292.57 52.26 1292.57 51 1291.02 51"/><rect class="cls-2" x="1304.29" y="53.17" width="6.54" height="9.11"/><polyline class="cls-2" points="1301.81 52.26 1301.81 51 1303.36 51"/><polyline class="cls-2" points="1313.3 52.26 1313.3 51 1311.75 51"/><rect class="cls-2" x="1324.9" y="53.17" width="6.54" height="9.11"/><polyline class="cls-2" points="1322.43 52.26 1322.43 51 1323.98 51"/><polyline class="cls-2" points="1333.92 52.26 1333.92 51 1332.37 51"/><rect class="cls-2" x="1345.48" y="53.17" width="6.54" height="9.11"/><polyline class="cls-2" points="1343 52.26 1343 51 1344.55 51"/><polyline class="cls-2" points="1354.49 52.26 1354.49 51 1352.94 51"/><rect class="cls-2" x="1365.95" y="53.17" width="6.54" height="9.11"/><polyline class="cls-2" points="1363.48 52.26 1363.48 51 1365.03 51"/><polyline class="cls-2" points="1374.96 52.26 1374.96 51 1373.42 51"/><rect class="cls-2" x="1386.89" y="53.17" width="6.54" height="9.11"/><polyline class="cls-2" points="1384.42 52.26 1384.42 51 1385.97 51"/><polyline class="cls-2" points="1395.9 52.26 1395.9 51 1394.36 51"/><rect class="cls-2" x="1407.37" y="53.17" width="6.54" height="9.11"/><polyline class="cls-2" points="1404.9 52.26 1404.9 51 1406.44 51"/><polyline class="cls-2" points="1416.38 52.26 1416.38 51 1414.83 51"/><rect class="cls-2" x="1427.53" y="53.17" width="6.54" height="9.11"/><polyline class="cls-2" points="1425.06 52.26 1425.06 51 1426.61 51"/><polyline class="cls-2" points="1436.54 52.26 1436.54 51 1435 51"/><rect class="cls-2" x="1448.15" y="53.17" width="6.54" height="9.11"/><polyline class="cls-2" points="1445.68 52.26 1445.68 51 1447.23 51"/><polyline class="cls-2" points="1457.16 52.26 1457.16 51 1455.62 51"/><rect class="cls-2" x="1472.02" y="53.17" width="6.54" height="9.11"/><polyline class="cls-2" points="1469.55 52.26 1469.55 51 1471.1 51"/><polyline class="cls-2" points="1481.04 52.26 1481.04 51 1479.49 51"/><rect class="cls-2" x="1492.5" y="53.17" width="6.54" height="9.11"/><polyline class="cls-2" points="1490.03 52.26 1490.03 51 1491.58 51"/><polyline class="cls-2" points="1501.51 52.26 1501.51 51 1499.96 51"/><rect class="cls-2" x="1513.44" y="53.17" width="6.54" height="9.11"/><polyline class="cls-2" points="1510.97 52.26 1510.97 51 1512.52 51"/><polyline class="cls-2" points="1522.45 52.26 1522.45 51 1520.9 51"/><rect class="cls-2" x="1533.92" y="53.17" width="6.54" height="9.11"/><polyline class="cls-2" points="1531.44 52.26 1531.44 51 1532.99 51"/><polyline class="cls-2" points="1542.93 52.26 1542.93 51 1541.38 51"/><rect class="cls-2" x="1554.79" y="53.17" width="6.54" height="9.11"/><polyline class="cls-2" points="1552.31 52.26 1552.31 51 1553.86 51"/><polyline class="cls-2" points="1563.8 52.26 1563.8 51 1562.25 51"/><rect class="cls-2" x="1575.26" y="53.17" width="6.54" height="9.11"/><polyline class="cls-2" points="1572.79 52.26 1572.79 51 1574.34 51"/><polyline class="cls-2" points="1584.27 52.26 1584.27 51 1582.73 51"/><rect class="cls-2" x="1344.88" y="709.13" width="6.54" height="9.11" transform="translate(2696.31 1427.37) rotate(180)"/><polyline class="cls-2" points="1353.9 719.14 1353.9 720.4 1352.35 720.4"/><polyline class="cls-2" points="1342.41 719.14 1342.41 720.4 1343.96 720.4"/><rect class="cls-2" x="1365.64" y="709.13" width="6.54" height="9.11" transform="translate(2737.83 1427.37) rotate(180)"/><polyline class="cls-2" points="1374.65 719.14 1374.65 720.4 1373.11 720.4"/><polyline class="cls-2" points="1363.17 719.14 1363.17 720.4 1364.72 720.4"/><rect class="cls-2" x="1324.31" y="709.13" width="6.54" height="9.11" transform="translate(2655.17 1427.37) rotate(180)"/><polyline class="cls-2" points="1333.33 719.14 1333.33 720.4 1331.78 720.4"/><polyline class="cls-2" points="1321.84 719.14 1321.84 720.4 1323.39 720.4"/><rect class="cls-2" x="1303.59" y="709.13" width="6.54" height="9.11" transform="translate(2613.71 1427.37) rotate(180)"/><polyline class="cls-2" points="1312.6 719.14 1312.6 720.4 1311.05 720.4"/><polyline class="cls-2" points="1301.12 719.14 1301.12 720.4 1302.66 720.4"/><rect class="cls-2" x="1282.97" y="709.13" width="6.54" height="9.11" transform="translate(2572.48 1427.37) rotate(180)"/><polyline class="cls-2" points="1291.98 719.14 1291.98 720.4 1290.43 720.4"/><polyline class="cls-2" points="1280.5 719.14 1280.5 720.4 1282.04 720.4"/><rect class="cls-2" x="1262.4" y="709.13" width="6.54" height="9.11" transform="translate(2531.33 1427.37) rotate(180)"/><polyline class="cls-2" points="1271.41 719.14 1271.41 720.4 1269.86 720.4"/><polyline class="cls-2" points="1259.92 719.14 1259.92 720.4 1261.47 720.4"/><rect class="cls-2" x="1241.92" y="709.13" width="6.54" height="9.11" transform="translate(2490.38 1427.37) rotate(180)"/><polyline class="cls-2" points="1250.93 719.14 1250.93 720.4 1249.38 720.4"/><polyline class="cls-2" points="1239.45 719.14 1239.45 720.4 1241 720.4"/><rect class="cls-2" x="1220.98" y="709.13" width="6.54" height="9.11" transform="translate(2448.5 1427.37) rotate(180)"/><polyline class="cls-2" points="1229.99 719.14 1229.99 720.4 1228.44 720.4"/><polyline class="cls-2" points="1218.51 719.14 1218.51 720.4 1220.06 720.4"/><rect class="cls-2" x="1200.5" y="709.13" width="6.54" height="9.11" transform="translate(2407.55 1427.37) rotate(180)"/><polyline class="cls-2" points="1209.52 719.14 1209.52 720.4 1207.97 720.4"/><polyline class="cls-2" points="1198.03 719.14 1198.03 720.4 1199.58 720.4"/><rect class="cls-2" x="1180.34" y="709.13" width="6.54" height="9.11" transform="translate(2367.22 1427.37) rotate(180)"/><polyline class="cls-2" points="1189.35 719.14 1189.35 720.4 1187.81 720.4"/><polyline class="cls-2" points="1177.87 719.14 1177.87 720.4 1179.42 720.4"/><rect class="cls-2" x="1159.81" y="709.13" width="6.54" height="9.11" transform="translate(2326.17 1427.37) rotate(180)"/><polyline class="cls-2" points="1168.83 719.14 1168.83 720.4 1167.28 720.4"/><polyline class="cls-2" points="1157.34 719.14 1157.34 720.4 1158.89 720.4"/><rect class="cls-2" x="1139.21" y="709.13" width="6.54" height="9.11" transform="translate(2284.96 1427.37) rotate(180)"/><polyline class="cls-2" points="1148.22 719.14 1148.22 720.4 1146.67 720.4"/><polyline class="cls-2" points="1136.74 719.14 1136.74 720.4 1138.29 720.4"/><rect class="cls-2" x="1118.73" y="709.13" width="6.54" height="9.11" transform="translate(2244.01 1427.37) rotate(180)"/><polyline class="cls-2" points="1127.75 719.14 1127.75 720.4 1126.2 720.4"/><polyline class="cls-2" points="1116.26 719.14 1116.26 720.4 1117.81 720.4"/><rect class="cls-2" x="1097.79" y="709.13" width="6.54" height="9.11" transform="translate(2202.13 1427.37) rotate(180)"/><polyline class="cls-2" points="1106.81 719.14 1106.81 720.4 1105.26 720.4"/><polyline class="cls-2" points="1095.32 719.14 1095.32 720.4 1096.87 720.4"/><rect class="cls-2" x="1077.32" y="709.13" width="6.54" height="9.11" transform="translate(2161.17 1427.37) rotate(180)"/><polyline class="cls-2" points="1086.33 719.14 1086.33 720.4 1084.78 720.4"/><polyline class="cls-2" points="1074.85 719.14 1074.85 720.4 1076.39 720.4"/><rect class="cls-2" x="1056.45" y="709.13" width="6.54" height="9.11" transform="translate(2119.44 1427.37) rotate(180)"/><polyline class="cls-2" points="1065.46 719.14 1065.46 720.4 1063.91 720.4"/><polyline class="cls-2" points="1053.98 719.14 1053.98 720.4 1055.52 720.4"/><rect class="cls-2" x="1035.97" y="709.13" width="6.54" height="9.11" transform="translate(2078.48 1427.37) rotate(180)"/><polyline class="cls-2" points="1044.98 719.14 1044.98 720.4 1043.44 720.4"/><polyline class="cls-2" points="1033.5 719.14 1033.5 720.4 1035.05 720.4"/><rect class="cls-2" x="867.83" y="709.13" width="6.54" height="9.11" transform="translate(1742.21 1427.37) rotate(180)"/><polyline class="cls-2" points="876.85 719.14 876.85 720.4 875.3 720.4"/><polyline class="cls-2" points="865.36 719.14 865.36 720.4 866.91 720.4"/><rect class="cls-2" x="846.89" y="709.13" width="6.54" height="9.11" transform="translate(1700.33 1427.37) rotate(180)"/><polyline class="cls-2" points="855.9 719.14 855.9 720.4 854.36 720.4"/><polyline class="cls-2" points="844.42 719.14 844.42 720.4 845.97 720.4"/><rect class="cls-2" x="826.42" y="709.13" width="6.54" height="9.11" transform="translate(1659.37 1427.37) rotate(180)"/><polyline class="cls-2" points="835.43 719.14 835.43 720.4 833.88 720.4"/><polyline class="cls-2" points="823.94 719.14 823.94 720.4 825.49 720.4"/><rect class="cls-2" x="805.55" y="709.13" width="6.54" height="9.11" transform="translate(1617.63 1427.37) rotate(180)"/><polyline class="cls-2" points="814.56 719.14 814.56 720.4 813.01 720.4"/><polyline class="cls-2" points="803.08 719.14 803.08 720.4 804.62 720.4"/><rect class="cls-2" x="785.07" y="709.13" width="6.54" height="9.11" transform="translate(1576.68 1427.37) rotate(180)"/><polyline class="cls-2" points="794.08 719.14 794.08 720.4 792.54 720.4"/><polyline class="cls-2" points="782.6 719.14 782.6 720.4 784.15 720.4"/><rect class="cls-2" x="765.2" y="709.13" width="6.54" height="9.11" transform="translate(1536.94 1427.37) rotate(180)"/><polyline class="cls-2" points="774.21 719.14 774.21 720.4 772.66 720.4"/><polyline class="cls-2" points="762.73 719.14 762.73 720.4 764.27 720.4"/><rect class="cls-2" x="744.26" y="709.13" width="6.54" height="9.11" transform="translate(1495.06 1427.37) rotate(180)"/><polyline class="cls-2" points="753.27 719.14 753.27 720.4 751.72 720.4"/><polyline class="cls-2" points="741.79 719.14 741.79 720.4 743.33 720.4"/><rect class="cls-2" x="723.78" y="709.13" width="6.54" height="9.11" transform="translate(1454.1 1427.37) rotate(180)"/><polyline class="cls-2" points="732.79 719.14 732.79 720.4 731.25 720.4"/><polyline class="cls-2" points="721.31 719.14 721.31 720.4 722.86 720.4"/><rect class="cls-2" x="702.91" y="709.13" width="6.54" height="9.11" transform="translate(1412.37 1427.37) rotate(180)"/><polyline class="cls-2" points="711.92 719.14 711.92 720.4 710.38 720.4"/><polyline class="cls-2" points="700.44 719.14 700.44 720.4 701.99 720.4"/><rect class="cls-2" x="682.44" y="709.13" width="6.54" height="9.11" transform="translate(1371.41 1427.37) rotate(180)"/><polyline class="cls-2" points="691.45 719.14 691.45 720.4 689.9 720.4"/><polyline class="cls-2" points="679.96 719.14 679.96 720.4 681.51 720.4"/><rect class="cls-2" x="661.61" y="709.13" width="6.54" height="9.11" transform="translate(1329.76 1427.37) rotate(180)"/><polyline class="cls-2" points="670.62 719.14 670.62 720.4 669.08 720.4"/><polyline class="cls-2" points="659.14 719.14 659.14 720.4 660.69 720.4"/><rect class="cls-2" x="641.13" y="709.13" width="6.54" height="9.11" transform="translate(1288.81 1427.37) rotate(180)"/><polyline class="cls-2" points="650.15 719.14 650.15 720.4 648.6 720.4"/><polyline class="cls-2" points="638.66 719.14 638.66 720.4 640.21 720.4"/><rect class="cls-2" x="621.26" y="709.13" width="6.54" height="9.11" transform="translate(1249.06 1427.37) rotate(180)"/><polyline class="cls-2" points="630.27 719.14 630.27 720.4 628.73 720.4"/><polyline class="cls-2" points="618.79 719.14 618.79 720.4 620.34 720.4"/><rect class="cls-2" x="600.32" y="709.13" width="6.54" height="9.11" transform="translate(1207.18 1427.37) rotate(180)"/><polyline class="cls-2" points="609.33 719.14 609.33 720.4 607.79 720.4"/><polyline class="cls-2" points="597.85 719.14 597.85 720.4 599.4 720.4"/><rect class="cls-2" x="579.85" y="709.13" width="6.54" height="9.11" transform="translate(1166.23 1427.37) rotate(180)"/><polyline class="cls-2" points="588.86 719.14 588.86 720.4 587.31 720.4"/><polyline class="cls-2" points="577.37 719.14 577.37 720.4 578.92 720.4"/><rect class="cls-2" x="558.98" y="709.13" width="6.54" height="9.11" transform="translate(1124.49 1427.37) rotate(180)"/><polyline class="cls-2" points="567.99 719.14 567.99 720.4 566.44 720.4"/><polyline class="cls-2" points="556.5 719.14 556.5 720.4 558.05 720.4"/><rect class="cls-2" x="538.5" y="709.13" width="6.54" height="9.11" transform="translate(1083.54 1427.37) rotate(180)"/><polyline class="cls-2" points="547.51 719.14 547.51 720.4 545.96 720.4"/><polyline class="cls-2" points="536.03 719.14 536.03 720.4 537.58 720.4"/><rect class="cls-2" x="517.36" y="709.13" width="6.54" height="9.11" transform="translate(1041.25 1427.37) rotate(180)"/><polyline class="cls-2" points="526.37 719.14 526.37 720.4 524.82 720.4"/><polyline class="cls-2" points="514.88 719.14 514.88 720.4 516.43 720.4"/><rect class="cls-2" x="496.88" y="709.13" width="6.54" height="9.11" transform="translate(1000.3 1427.37) rotate(180)"/><polyline class="cls-2" points="505.89 719.14 505.89 720.4 504.35 720.4"/><polyline class="cls-2" points="494.41 719.14 494.41 720.4 495.96 720.4"/><rect class="cls-2" x="1238.94" y="47.36" width="14" height="5.43"/><rect class="cls-2" x="1235.99" y="52.79" width="7.86" height="18.33"/><rect class="cls-2" x="1592.56" y="47.36" width="22.92" height="5.43"/><rect class="cls-2" x="1589.61" y="52.79" width="7.86" height="18.33"/><rect class="cls-2" x="1377.75" y="718.24" width="13.24" height="6.31"/><rect class="cls-2" x="1411.33" y="700.83" width="8.22" height="17.4"/><rect class="cls-2" x="885.07" y="718.21" width="13.84" height="52.48"/><rect class="cls-2" x="1032.66" y="0.5" width="13.84" height="52.48"/><polygon class="cls-2" points="916.18 718.21 912.33 718.21 912.33 734.4 916.18 734.4 916.18 725.93 921.42 725.93 921.42 718.21 916.18 718.21"/><polygon class="cls-2" points="1015.9 718.21 1019.75 718.21 1019.75 734.4 1015.9 734.4 1015.9 725.93 1010.66 725.93 1010.66 718.21 1015.9 718.21"/><polygon class="cls-2" points="981.71 738.82 981.01 738.82 950.15 738.82 949.64 738.82 943.55 738.82 943.55 754.31 950.15 754.31 950.15 745.87 981.01 745.87 981.01 754.31 987.61 754.31 987.61 738.82 981.71 738.82"/><polygon class="cls-2" points="916.18 53.17 912.33 53.17 912.33 36.98 916.18 36.98 916.18 45.45 921.42 45.45 921.42 53.17 916.18 53.17"/><polygon class="cls-2" points="1015.9 53.17 1019.75 53.17 1019.75 36.98 1015.9 36.98 1015.9 45.45 1010.66 45.45 1010.66 53.17 1015.9 53.17"/><polygon class="cls-2" points="981.71 32.56 981.01 32.56 950.15 32.56 949.64 32.56 943.55 32.56 943.55 17.07 950.15 17.07 950.15 25.52 981.01 25.52 981.01 17.07 987.61 17.07 987.61 32.56 981.71 32.56"/><rect class="cls-2" x="1427.28" y="718.21" width="13.29" height="6.19"/><rect class="cls-2" x="462.21" y="676.21" width="5.97" height="13.78"/><rect class="cls-2" x="481.26" y="700.72" width="7.75" height="14.92"/><rect class="cls-2" x="472.94" y="718.21" width="13.52" height="6.19"/><polygon class="cls-2" points="48.63 261.93 47.74 261.93 33.61 261.93 33.61 268.85 47.74 268.85 47.74 276.79 54.41 276.79 54.41 261.93 48.63 261.93"/><rect class="cls-2" x="5.9" y="233.67" width="5.71" height="13.27"/><rect class="cls-2" x="0.5" y="201.04" width="11.11" height="17.78"/><rect class="cls-2" x="5.9" y="180.34" width="5.71" height="13.52"/><rect class="cls-2" x="15.61" y="47.45" width="13.19" height="5.71"/><rect class="cls-2" x="24.94" y="55.93" width="7.62" height="15"/><rect class="cls-2" x="426.13" y="55.93" width="7.71" height="14.9"/><rect class="cls-2" x="429.42" y="47.5" width="13.29" height="5.67"/><rect class="cls-2" x="451.94" y="47.5" width="22.71" height="5.67"/><rect class="cls-2" x="493.9" y="47.5" width="13.43" height="5.67"/><rect class="cls-2" x="501.71" y="55.93" width="7.62" height="14.9"/><rect x="53.21" y="74.21" width="2.1" height="2.1"/><rect x="53.21" y="94.83" width="2.1" height="2.1"/><rect x="53.21" y="115.47" width="2.1" height="2.1"/><rect x="94.37" y="74.21" width="2.1" height="2.1"/><rect x="94.37" y="94.83" width="2.1" height="2.1"/><rect x="94.37" y="115.47" width="2.1" height="2.1"/><rect x="135.61" y="74.21" width="2.1" height="2.1"/><rect x="135.61" y="94.83" width="2.1" height="2.1"/><rect x="135.61" y="115.47" width="2.1" height="2.1"/><rect x="176.78" y="74.21" width="2.1" height="2.1"/><rect x="176.78" y="94.83" width="2.1" height="2.1"/><rect x="176.78" y="115.47" width="2.1" height="2.1"/><rect x="218.09" y="74.21" width="2.1" height="2.1"/><rect x="218.09" y="94.83" width="2.1" height="2.1"/><rect x="218.09" y="115.47" width="2.1" height="2.1"/><rect x="259.25" y="74.21" width="2.1" height="2.1"/><rect x="259.25" y="94.83" width="2.1" height="2.1"/><rect x="259.25" y="115.47" width="2.1" height="2.1"/><rect x="300.5" y="74.21" width="2.1" height="2.1"/><rect x="300.5" y="94.83" width="2.1" height="2.1"/><rect x="300.5" y="115.47" width="2.1" height="2.1"/><rect x="259.25" y="136.13" width="2.1" height="2.1"/><rect x="341.71" y="74.21" width="2.1" height="2.1"/><rect x="341.71" y="94.83" width="2.1" height="2.1"/><rect x="341.71" y="115.47" width="2.1" height="2.1"/><rect x="341.71" y="136.13" width="2.1" height="2.1"/><rect x="382.69" y="74.21" width="2.1" height="2.1"/><rect x="382.69" y="94.83" width="2.1" height="2.1"/><rect x="382.69" y="115.47" width="2.1" height="2.1"/><rect x="423.9" y="74.21" width="2.1" height="2.1"/><rect x="423.9" y="94.83" width="2.1" height="2.1"/><rect x="423.9" y="115.47" width="2.1" height="2.1"/><rect x="423.9" y="136.13" width="2.1" height="2.1"/><rect x="94.37" y="136.13" width="2.1" height="2.1"/><rect x="176.78" y="136.13" width="2.1" height="2.1"/><rect x="259.25" y="177.23" width="2.1" height="2.1"/><rect x="341.71" y="177.23" width="2.1" height="2.1"/><rect x="423.9" y="177.23" width="2.1" height="2.1"/><rect x="94.37" y="177.23" width="2.1" height="2.1"/><rect x="176.78" y="177.23" width="2.1" height="2.1"/><rect x="259.25" y="218.37" width="2.1" height="2.1"/><rect x="341.71" y="218.37" width="2.1" height="2.1"/><rect x="423.9" y="218.37" width="2.1" height="2.1"/><rect x="94.37" y="218.37" width="2.1" height="2.1"/><rect x="176.78" y="218.37" width="2.1" height="2.1"/><rect x="259.25" y="259.55" width="2.1" height="2.1"/><rect x="341.71" y="259.55" width="2.1" height="2.1"/><rect x="423.9" y="259.55" width="2.1" height="2.1"/><rect x="176.78" y="259.55" width="2.1" height="2.1"/><rect x="259.25" y="300.94" width="2.1" height="2.1"/><rect x="341.71" y="300.94" width="2.1" height="2.1"/><rect x="423.9" y="300.94" width="2.1" height="2.1"/><rect x="176.78" y="300.94" width="2.1" height="2.1"/><rect x="259.25" y="341.61" width="2.1" height="2.1"/><rect x="341.71" y="341.61" width="2.1" height="2.1"/><rect x="423.9" y="341.61" width="2.1" height="2.1"/><rect x="550.82" y="74.21" width="2.1" height="2.1"/><rect x="550.82" y="94.83" width="2.1" height="2.1"/><rect x="550.82" y="115.47" width="2.1" height="2.1"/><rect x="509.77" y="74.21" width="2.1" height="2.1"/><rect x="509.77" y="94.83" width="2.1" height="2.1"/><rect x="509.77" y="115.47" width="2.1" height="2.1"/><rect x="550.82" y="136.13" width="2.1" height="2.1"/><rect x="550.82" y="177.23" width="2.1" height="2.1"/><rect x="550.82" y="218.37" width="2.1" height="2.1"/><rect x="550.82" y="259.55" width="2.1" height="2.1"/><rect x="550.82" y="300.94" width="2.1" height="2.1"/><rect x="550.82" y="341.61" width="2.1" height="2.1"/><rect x="550.94" y="695.17" width="2.1" height="2.1"/><rect x="550.94" y="674.55" width="2.1" height="2.1"/><rect x="550.94" y="653.91" width="2.1" height="2.1"/><rect x="509.93" y="695.17" width="2.1" height="2.1"/><rect x="509.93" y="674.55" width="2.1" height="2.1"/><rect x="509.93" y="653.91" width="2.1" height="2.1"/><rect x="550.94" y="633.25" width="2.1" height="2.1"/><rect x="550.94" y="592.15" width="2.1" height="2.1"/><rect x="550.94" y="551.01" width="2.1" height="2.1"/><rect x="550.94" y="509.83" width="2.1" height="2.1"/><rect x="550.94" y="468.44" width="2.1" height="2.1"/><rect x="550.94" y="427.77" width="2.1" height="2.1"/><rect x="633.33" y="695.17" width="2.1" height="2.1"/><rect x="633.33" y="674.55" width="2.1" height="2.1"/><rect x="633.33" y="653.91" width="2.1" height="2.1"/><rect x="592.31" y="695.17" width="2.1" height="2.1"/><rect x="592.31" y="674.55" width="2.1" height="2.1"/><rect x="592.31" y="653.91" width="2.1" height="2.1"/><rect x="633.33" y="633.25" width="2.1" height="2.1"/><rect x="633.33" y="592.15" width="2.1" height="2.1"/><rect x="633.33" y="551.01" width="2.1" height="2.1"/><rect x="633.33" y="509.83" width="2.1" height="2.1"/><rect x="633.33" y="468.44" width="2.1" height="2.1"/><rect x="633.33" y="427.77" width="2.1" height="2.1"/><rect x="715.61" y="695.17" width="2.1" height="2.1"/><rect x="715.61" y="674.55" width="2.1" height="2.1"/><rect x="715.61" y="653.91" width="2.1" height="2.1"/><rect x="674.6" y="695.17" width="2.1" height="2.1"/><rect x="674.6" y="674.55" width="2.1" height="2.1"/><rect x="674.6" y="653.91" width="2.1" height="2.1"/><rect x="715.61" y="633.25" width="2.1" height="2.1"/><rect x="715.61" y="592.15" width="2.1" height="2.1"/><rect x="715.61" y="551.01" width="2.1" height="2.1"/><rect x="715.61" y="509.83" width="2.1" height="2.1"/><rect x="715.61" y="468.44" width="2.1" height="2.1"/><rect x="715.61" y="427.77" width="2.1" height="2.1"/><rect x="798.09" y="695.17" width="2.1" height="2.1"/><rect x="798.09" y="674.55" width="2.1" height="2.1"/><rect x="798.09" y="653.91" width="2.1" height="2.1"/><rect x="757.07" y="695.17" width="2.1" height="2.1"/><rect x="757.07" y="674.55" width="2.1" height="2.1"/><rect x="757.07" y="653.91" width="2.1" height="2.1"/><rect x="798.09" y="633.25" width="2.1" height="2.1"/><rect x="798.09" y="592.15" width="2.1" height="2.1"/><rect x="798.09" y="551.01" width="2.1" height="2.1"/><rect x="798.09" y="509.83" width="2.1" height="2.1"/><rect x="798.09" y="468.44" width="2.1" height="2.1"/><rect x="798.09" y="427.77" width="2.1" height="2.1"/><rect x="880.47" y="695.17" width="2.1" height="2.1"/><rect x="880.47" y="674.55" width="2.1" height="2.1"/><rect x="880.47" y="653.91" width="2.1" height="2.1"/><rect x="839.45" y="695.17" width="2.1" height="2.1"/><rect x="839.45" y="674.55" width="2.1" height="2.1"/><rect x="839.45" y="653.91" width="2.1" height="2.1"/><rect x="880.47" y="633.25" width="2.1" height="2.1"/><rect x="880.47" y="592.15" width="2.1" height="2.1"/><rect x="880.47" y="551.01" width="2.1" height="2.1"/><rect x="880.47" y="509.83" width="2.1" height="2.1"/><rect x="880.47" y="468.44" width="2.1" height="2.1"/><rect x="880.47" y="427.77" width="2.1" height="2.1"/><rect x="633.33" y="74.21" width="2.1" height="2.1"/><rect x="633.33" y="94.83" width="2.1" height="2.1"/><rect x="633.33" y="115.47" width="2.1" height="2.1"/><rect x="592.28" y="74.21" width="2.1" height="2.1"/><rect x="592.28" y="94.83" width="2.1" height="2.1"/><rect x="592.28" y="115.47" width="2.1" height="2.1"/><rect x="633.33" y="136.13" width="2.1" height="2.1"/><rect x="633.33" y="177.23" width="2.1" height="2.1"/><rect x="633.33" y="218.37" width="2.1" height="2.1"/><rect x="633.33" y="259.55" width="2.1" height="2.1"/><rect x="633.33" y="300.94" width="2.1" height="2.1"/><rect x="633.33" y="341.61" width="2.1" height="2.1"/><rect x="715.61" y="74.21" width="2.1" height="2.1"/><rect x="715.61" y="94.83" width="2.1" height="2.1"/><rect x="715.61" y="115.47" width="2.1" height="2.1"/><rect x="674.56" y="74.21" width="2.1" height="2.1"/><rect x="674.56" y="94.83" width="2.1" height="2.1"/><rect x="674.56" y="115.47" width="2.1" height="2.1"/><rect x="715.61" y="136.13" width="2.1" height="2.1"/><rect x="715.61" y="177.23" width="2.1" height="2.1"/><rect x="715.61" y="218.37" width="2.1" height="2.1"/><rect x="715.61" y="259.55" width="2.1" height="2.1"/><rect x="715.61" y="300.94" width="2.1" height="2.1"/><rect x="715.61" y="341.61" width="2.1" height="2.1"/><rect x="798.09" y="74.21" width="2.1" height="2.1"/><rect x="798.09" y="94.83" width="2.1" height="2.1"/><rect x="798.09" y="115.47" width="2.1" height="2.1"/><rect x="757.04" y="74.21" width="2.1" height="2.1"/><rect x="757.04" y="94.83" width="2.1" height="2.1"/><rect x="757.04" y="115.47" width="2.1" height="2.1"/><rect x="798.09" y="136.13" width="2.1" height="2.1"/><rect x="798.09" y="177.23" width="2.1" height="2.1"/><rect x="798.09" y="218.37" width="2.1" height="2.1"/><rect x="798.09" y="259.55" width="2.1" height="2.1"/><rect x="798.09" y="300.94" width="2.1" height="2.1"/><rect x="798.09" y="341.61" width="2.1" height="2.1"/><rect x="880.47" y="74.21" width="2.1" height="2.1"/><rect x="880.47" y="94.83" width="2.1" height="2.1"/><rect x="880.47" y="115.47" width="2.1" height="2.1"/><rect x="839.42" y="74.21" width="2.1" height="2.1"/><rect x="839.42" y="94.83" width="2.1" height="2.1"/><rect x="839.42" y="115.47" width="2.1" height="2.1"/><rect x="880.47" y="136.13" width="2.1" height="2.1"/><rect x="880.47" y="177.23" width="2.1" height="2.1"/><rect x="880.47" y="218.37" width="2.1" height="2.1"/><rect x="880.47" y="259.55" width="2.1" height="2.1"/><rect x="880.47" y="300.94" width="2.1" height="2.1"/><rect x="880.47" y="341.61" width="2.1" height="2.1"/><rect x="1048.75" y="695.17" width="2.1" height="2.1"/><rect x="1048.75" y="674.55" width="2.1" height="2.1"/><rect x="1048.75" y="653.91" width="2.1" height="2.1"/><rect x="1089.99" y="695.17" width="2.1" height="2.1"/><rect x="1089.99" y="674.55" width="2.1" height="2.1"/><rect x="1089.99" y="653.91" width="2.1" height="2.1"/><rect x="1048.75" y="633.25" width="2.1" height="2.1"/><rect x="1048.75" y="592.15" width="2.1" height="2.1"/><rect x="1048.75" y="551.01" width="2.1" height="2.1"/><rect x="1048.75" y="509.83" width="2.1" height="2.1"/><rect x="1048.75" y="468.44" width="2.1" height="2.1"/><rect x="1048.75" y="427.77" width="2.1" height="2.1"/><rect x="1048.75" y="74.21" width="2.1" height="2.1"/><rect x="1048.75" y="94.83" width="2.1" height="2.1"/><rect x="1048.75" y="115.47" width="2.1" height="2.1"/><rect x="1089.48" y="74.21" width="2.1" height="2.1"/><rect x="1089.48" y="94.83" width="2.1" height="2.1"/><rect x="1089.48" y="115.47" width="2.1" height="2.1"/><rect x="1048.75" y="136.13" width="2.1" height="2.1"/><rect x="1048.75" y="177.23" width="2.1" height="2.1"/><rect x="1048.75" y="218.37" width="2.1" height="2.1"/><rect x="1048.75" y="259.55" width="2.1" height="2.1"/><rect x="1048.75" y="300.94" width="2.1" height="2.1"/><rect x="1048.75" y="341.61" width="2.1" height="2.1"/><rect x="1131.07" y="695.17" width="2.1" height="2.1"/><rect x="1131.07" y="674.55" width="2.1" height="2.1"/><rect x="1131.07" y="653.91" width="2.1" height="2.1"/><rect x="1172.31" y="695.17" width="2.1" height="2.1"/><rect x="1172.31" y="674.55" width="2.1" height="2.1"/><rect x="1172.31" y="653.91" width="2.1" height="2.1"/><rect x="1131.07" y="633.25" width="2.1" height="2.1"/><rect x="1131.07" y="592.15" width="2.1" height="2.1"/><rect x="1131.07" y="551.01" width="2.1" height="2.1"/><rect x="1131.07" y="509.83" width="2.1" height="2.1"/><rect x="1131.07" y="468.44" width="2.1" height="2.1"/><rect x="1131.07" y="427.77" width="2.1" height="2.1"/><rect x="1131.07" y="74.21" width="2.1" height="2.1"/><rect x="1131.07" y="94.83" width="2.1" height="2.1"/><rect x="1131.07" y="115.47" width="2.1" height="2.1"/><rect x="1171.8" y="74.21" width="2.1" height="2.1"/><rect x="1171.8" y="94.83" width="2.1" height="2.1"/><rect x="1171.8" y="115.47" width="2.1" height="2.1"/><rect x="1131.07" y="136.13" width="2.1" height="2.1"/><rect x="1131.07" y="177.23" width="2.1" height="2.1"/><rect x="1131.07" y="218.37" width="2.1" height="2.1"/><rect x="1131.07" y="259.55" width="2.1" height="2.1"/><rect x="1131.07" y="300.94" width="2.1" height="2.1"/><rect x="1131.07" y="341.61" width="2.1" height="2.1"/><rect x="1213.83" y="695.17" width="2.1" height="2.1"/><rect x="1213.83" y="674.55" width="2.1" height="2.1"/><rect x="1213.83" y="653.91" width="2.1" height="2.1"/><rect x="1255.07" y="695.17" width="2.1" height="2.1"/><rect x="1255.07" y="674.55" width="2.1" height="2.1"/><rect x="1255.07" y="653.91" width="2.1" height="2.1"/><rect x="1213.83" y="633.25" width="2.1" height="2.1"/><rect x="1213.83" y="592.15" width="2.1" height="2.1"/><rect x="1213.83" y="551.01" width="2.1" height="2.1"/><rect x="1213.83" y="509.83" width="2.1" height="2.1"/><rect x="1213.83" y="468.44" width="2.1" height="2.1"/><rect x="1213.83" y="427.77" width="2.1" height="2.1"/><rect x="1213.83" y="74.21" width="2.1" height="2.1"/><rect x="1213.83" y="94.83" width="2.1" height="2.1"/><rect x="1213.83" y="115.47" width="2.1" height="2.1"/><rect x="1254.56" y="74.21" width="2.1" height="2.1"/><rect x="1254.56" y="94.83" width="2.1" height="2.1"/><rect x="1254.56" y="115.47" width="2.1" height="2.1"/><rect x="1213.83" y="136.13" width="2.1" height="2.1"/><rect x="1213.83" y="177.23" width="2.1" height="2.1"/><rect x="1213.83" y="218.37" width="2.1" height="2.1"/><rect x="1213.83" y="259.55" width="2.1" height="2.1"/><rect x="1213.83" y="300.94" width="2.1" height="2.1"/><rect x="1213.83" y="341.61" width="2.1" height="2.1"/><rect x="1296.21" y="695.17" width="2.1" height="2.1"/><rect x="1296.21" y="674.55" width="2.1" height="2.1"/><rect x="1296.21" y="653.91" width="2.1" height="2.1"/><rect x="1337.45" y="695.17" width="2.1" height="2.1"/><rect x="1337.45" y="674.55" width="2.1" height="2.1"/><rect x="1337.45" y="653.91" width="2.1" height="2.1"/><rect x="1296.21" y="633.25" width="2.1" height="2.1"/><rect x="1296.21" y="592.15" width="2.1" height="2.1"/><rect x="1296.21" y="551.01" width="2.1" height="2.1"/><rect x="1296.21" y="509.83" width="2.1" height="2.1"/><rect x="1296.21" y="468.44" width="2.1" height="2.1"/><rect x="1296.21" y="427.77" width="2.1" height="2.1"/><rect x="1296.21" y="74.21" width="2.1" height="2.1"/><rect x="1296.21" y="94.83" width="2.1" height="2.1"/><rect x="1296.21" y="115.47" width="2.1" height="2.1"/><rect x="1336.94" y="74.21" width="2.1" height="2.1"/><rect x="1336.94" y="94.83" width="2.1" height="2.1"/><rect x="1336.94" y="115.47" width="2.1" height="2.1"/><rect x="1296.21" y="136.13" width="2.1" height="2.1"/><rect x="1296.21" y="177.23" width="2.1" height="2.1"/><rect x="1296.21" y="218.37" width="2.1" height="2.1"/><rect x="1296.21" y="259.55" width="2.1" height="2.1"/><rect x="1296.21" y="300.94" width="2.1" height="2.1"/><rect x="1296.21" y="341.61" width="2.1" height="2.1"/><rect x="1378.5" y="695.17" width="2.1" height="2.1"/><rect x="1378.5" y="674.55" width="2.1" height="2.1"/><rect x="1378.5" y="653.91" width="2.1" height="2.1"/><rect x="1419.74" y="695.17" width="2.1" height="2.1"/><rect x="1419.74" y="674.55" width="2.1" height="2.1"/><rect x="1419.74" y="653.91" width="2.1" height="2.1"/><rect x="1378.5" y="633.25" width="2.1" height="2.1"/><rect x="1378.5" y="592.15" width="2.1" height="2.1"/><rect x="1378.5" y="551.01" width="2.1" height="2.1"/><rect x="1378.5" y="509.83" width="2.1" height="2.1"/><rect x="1378.5" y="468.44" width="2.1" height="2.1"/><rect x="1378.5" y="427.77" width="2.1" height="2.1"/><rect x="1546.37" y="427.77" width="2.1" height="2.1"/><rect x="1378.5" y="74.21" width="2.1" height="2.1"/><rect x="1378.5" y="94.83" width="2.1" height="2.1"/><rect x="1378.5" y="115.47" width="2.1" height="2.1"/><rect x="1419.23" y="74.21" width="2.1" height="2.1"/><rect x="1419.23" y="94.83" width="2.1" height="2.1"/><rect x="1419.23" y="115.47" width="2.1" height="2.1"/><rect x="1378.5" y="136.13" width="2.1" height="2.1"/><rect x="1378.5" y="177.23" width="2.1" height="2.1"/><rect x="1378.5" y="218.37" width="2.1" height="2.1"/><rect x="1378.5" y="259.55" width="2.1" height="2.1"/><rect x="1378.5" y="300.94" width="2.1" height="2.1"/><rect x="1378.5" y="341.61" width="2.1" height="2.1"/><rect x="1546.37" y="74.21" width="2.1" height="2.1"/><rect x="1546.37" y="94.83" width="2.1" height="2.1"/><rect x="1546.37" y="115.47" width="2.1" height="2.1"/><rect x="1505.42" y="74.21" width="2.1" height="2.1"/><rect x="1505.42" y="94.83" width="2.1" height="2.1"/><rect x="1505.42" y="115.47" width="2.1" height="2.1"/><rect x="1546.37" y="136.13" width="2.1" height="2.1"/><rect x="1546.37" y="177.23" width="2.1" height="2.1"/><rect x="1546.37" y="218.37" width="2.1" height="2.1"/><rect x="1546.37" y="259.55" width="2.1" height="2.1"/><rect x="1546.37" y="300.94" width="2.1" height="2.1"/><rect x="1546.37" y="341.61" width="2.1" height="2.1"/><rect x="1464.11" y="74.21" width="2.1" height="2.1"/><rect x="1464.11" y="94.83" width="2.1" height="2.1"/><rect x="1464.11" y="115.47" width="2.1" height="2.1"/><rect x="1464.11" y="136.13" width="2.1" height="2.1"/><rect x="1464.11" y="177.23" width="2.1" height="2.1"/><rect x="1464.11" y="218.37" width="2.1" height="2.1"/><rect x="1464.11" y="259.55" width="2.1" height="2.1"/><rect x="1464.11" y="300.94" width="2.1" height="2.1"/><rect x="1464.11" y="341.61" width="2.1" height="2.1"/><rect x="1460.59" y="74.21" width="2.1" height="2.1"/><rect x="1460.59" y="94.83" width="2.1" height="2.1"/><rect x="1460.59" y="115.47" width="2.1" height="2.1"/><rect x="1460.59" y="136.13" width="2.1" height="2.1"/><rect x="1460.59" y="177.23" width="2.1" height="2.1"/><rect x="1460.59" y="218.37" width="2.1" height="2.1"/><rect x="1460.59" y="259.55" width="2.1" height="2.1"/><rect x="1460.59" y="300.94" width="2.1" height="2.1"/><rect x="1460.59" y="341.61" width="2.1" height="2.1"/><rect x="1546.37" y="383.33" width="2.1" height="2.1"/><rect x="1546.37" y="386.61" width="2.1" height="2.1"/><rect x="176.78" y="341.61" width="2.1" height="2.1"/><rect class="cls-2" x="129.58" y="266.56" width="5.52" height="13.46"/><rect class="cls-2" x="412.06" y="376.28" width="6.54" height="9.11" transform="translate(830.65 761.67) rotate(180)"/><polyline class="cls-2" points="421.07 386.29 421.07 387.56 419.52 387.56"/><polyline class="cls-2" points="409.58 386.29 409.58 387.56 411.13 387.56"/><rect class="cls-2" x="432.12" y="376.28" width="6.54" height="9.11" transform="translate(870.78 761.67) rotate(180)"/><polyline class="cls-2" points="441.13 386.29 441.13 387.56 439.58 387.56"/><polyline class="cls-2" points="429.65 386.29 429.65 387.56 431.19 387.56"/><rect class="cls-2" x="391.12" y="376.28" width="6.54" height="9.11" transform="translate(788.77 761.67) rotate(180)"/><polyline class="cls-2" points="400.13 386.29 400.13 387.56 398.58 387.56"/><polyline class="cls-2" points="388.64 386.29 388.64 387.56 390.19 387.56"/><rect class="cls-2" x="370.64" y="376.28" width="6.54" height="9.11" transform="translate(747.82 761.67) rotate(180)"/><polyline class="cls-2" points="379.65 386.29 379.65 387.56 378.1 387.56"/><polyline class="cls-2" points="368.17 386.29 368.17 387.56 369.71 387.56"/><rect class="cls-2" x="349.77" y="376.28" width="6.54" height="9.11" transform="translate(706.08 761.67) rotate(180)"/><polyline class="cls-2" points="358.78 386.29 358.78 387.56 357.23 387.56"/><polyline class="cls-2" points="347.3 386.29 347.3 387.56 348.85 387.56"/><rect class="cls-2" x="329.29" y="376.28" width="6.54" height="9.11" transform="translate(665.13 761.67) rotate(180)"/><polyline class="cls-2" points="338.31 386.29 338.31 387.56 336.76 387.56"/><polyline class="cls-2" points="326.82 386.29 326.82 387.56 328.37 387.56"/><rect class="cls-2" x="308.47" y="376.28" width="6.54" height="9.11" transform="translate(623.48 761.67) rotate(180)"/><polyline class="cls-2" points="317.48 386.29 317.48 387.56 315.93 387.56"/><polyline class="cls-2" points="306 386.29 306 387.56 307.54 387.56"/><rect class="cls-2" x="287.99" y="376.28" width="6.54" height="9.11" transform="translate(582.52 761.67) rotate(180)"/><polyline class="cls-2" points="297 386.29 297 387.56 295.46 387.56"/><polyline class="cls-2" points="285.52 386.29 285.52 387.56 287.07 387.56"/><rect class="cls-2" x="268.12" y="376.28" width="6.54" height="9.11" transform="translate(542.78 761.67) rotate(180)"/><polyline class="cls-2" points="277.13 386.29 277.13 387.56 275.58 387.56"/><polyline class="cls-2" points="265.65 386.29 265.65 387.56 267.19 387.56"/><rect class="cls-2" x="247.18" y="376.28" width="6.54" height="9.11" transform="translate(500.9 761.67) rotate(180)"/><polyline class="cls-2" points="256.19 386.29 256.19 387.56 254.64 387.56"/><polyline class="cls-2" points="244.71 386.29 244.71 387.56 246.25 387.56"/><rect class="cls-2" x="226.7" y="376.28" width="6.54" height="9.11" transform="translate(459.94 761.67) rotate(180)"/><polyline class="cls-2" points="235.71 386.29 235.71 387.56 234.17 387.56"/><polyline class="cls-2" points="224.23 386.29 224.23 387.56 225.78 387.56"/><rect class="cls-2" x="205.83" y="376.28" width="6.54" height="9.11" transform="translate(418.21 761.67) rotate(180)"/><polyline class="cls-2" points="214.84 386.29 214.84 387.56 213.3 387.56"/><polyline class="cls-2" points="203.36 386.29 203.36 387.56 204.91 387.56"/><rect class="cls-2" x="185.36" y="376.28" width="6.54" height="9.11" transform="translate(377.25 761.67) rotate(180)"/><polyline class="cls-2" points="194.37 386.29 194.37 387.56 192.82 387.56"/><polyline class="cls-2" points="182.88 386.29 182.88 387.56 184.43 387.56"/><rect class="cls-2" x="164.21" y="376.28" width="6.54" height="9.11" transform="translate(334.97 761.67) rotate(180)"/><polyline class="cls-2" points="173.23 386.29 173.23 387.56 171.68 387.56"/><polyline class="cls-2" points="161.74 386.29 161.74 387.56 163.29 387.56"/><rect class="cls-2" x="143.74" y="376.28" width="6.54" height="9.11" transform="translate(294.02 761.67) rotate(180)"/><polyline class="cls-2" points="152.75 386.29 152.75 387.56 151.2 387.56"/><polyline class="cls-2" points="141.27 386.29 141.27 387.56 142.81 387.56"/><rect class="cls-2" x="450.98" y="385.42" width="17.21" height="8.38"/><rect class="cls-2" x="1462.47" y="476.28" width="6.24" height="13.46"/><rect class="cls-2" x="1489.58" y="471.13" width="12.89" height="5.9"/><line class="cls-2" x1="468.18" y1="97.17" x2="468.18" y2="385.42"/><line class="cls-2" x1="965.58" y1="653.87" x2="965.58" y2="117.56"/><polyline class="cls-2" points="468.18 385.42 1462.47 385.42 1462.47 471.13"/></g></g></svg>