<svg width="32" height="33" viewBox="0 0 32 33" fill="none" xmlns="http://www.w3.org/2000/svg">
<mask id="mask0_2206_529" style="mask-type:alpha" maskUnits="userSpaceOnUse" x="0" y="0" width="32" height="33">
<rect y="0.333374" width="32" height="32" fill="#D9D9D9"/>
</mask>
<g mask="url(#mask0_2206_529)">
<path d="M9.3845 27C9.19562 27 9.03728 26.9362 8.9095 26.8084C8.78173 26.6806 8.71784 26.5223 8.71784 26.3334V23.805C8.28362 23.617 7.83317 23.2167 7.3665 22.604C6.89984 21.9912 6.6665 21.2856 6.6665 20.4874V8.33337C6.6665 6.95004 7.41506 5.93749 8.91217 5.29571C10.4093 4.65415 12.7715 4.33337 15.9988 4.33337C19.3431 4.33337 21.7348 4.64171 23.1742 5.25837C24.6135 5.87504 25.3332 6.90004 25.3332 8.33337V20.4874C25.3332 21.2856 25.0998 21.9912 24.6332 22.604C24.1665 23.2167 23.7161 23.617 23.2818 23.805V26.3334C23.2818 26.5223 23.2179 26.6806 23.0902 26.8084C22.9624 26.9362 22.8041 27 22.6152 27H22.3075C22.1186 27 21.9603 26.9362 21.8325 26.8084C21.7047 26.6806 21.6408 26.5223 21.6408 26.3334V24.3334H10.3588V26.3334C10.3588 26.5223 10.2949 26.6806 10.1672 26.8084C10.0394 26.9362 9.88106 27 9.69217 27H9.3845ZM7.99984 15H23.9998V9.05137H7.99984V15ZM11.3392 21.154C11.7541 21.154 12.1046 21.0088 12.3908 20.7184C12.6773 20.4279 12.8205 20.0754 12.8205 19.6607C12.8205 19.2458 12.6753 18.8953 12.3848 18.609C12.0944 18.3226 11.7418 18.1794 11.3272 18.1794C10.9123 18.1794 10.5617 18.3246 10.2755 18.615C9.98906 18.9055 9.84584 19.258 9.84584 19.6727C9.84584 20.0876 9.99106 20.4382 10.2815 20.7244C10.5719 21.0108 10.9245 21.154 11.3392 21.154ZM20.6725 21.154C21.0874 21.154 21.4379 21.0088 21.7242 20.7184C22.0106 20.4279 22.1538 20.0754 22.1538 19.6607C22.1538 19.2458 22.0086 18.8953 21.7182 18.609C21.4277 18.3226 21.0752 18.1794 20.6605 18.1794C20.2456 18.1794 19.8951 18.3246 19.6088 18.615C19.3224 18.9055 19.1792 19.258 19.1792 19.6727C19.1792 20.0876 19.3244 20.4382 19.6148 20.7244C19.9053 21.0108 20.2578 21.154 20.6725 21.154ZM8.13817 7.71804H23.8922C23.6613 7.03248 22.9488 6.51926 21.7548 6.17837C20.5608 5.83726 18.6476 5.66671 16.0152 5.66671C13.3981 5.66671 11.4925 5.83982 10.2985 6.18604C9.1045 6.53204 8.38439 7.04271 8.13817 7.71804ZM10.6665 23H21.3332C22.0665 23 22.6943 22.7389 23.2165 22.2167C23.7387 21.6945 23.9998 21.0667 23.9998 20.3334V16.3334H7.99984V20.3334C7.99984 21.0667 8.26095 21.6945 8.78317 22.2167C9.30539 22.7389 9.93317 23 10.6665 23Z" fill="white"/>
</g>
</svg>
